# xmcd CD database file
#
# Track frame offsets:
#	150
#	5850
#	24697
#	46267
#	64980
#	87475
#	106735
#	126645
#	144945
#	164845
#	185125
#	209275
#	229802
#	253372
#	272705
#
# Disc length: 4004 seconds
#
# Revision: 6
# Processed by: cddbd v1.5.2PL0 Copyright (c) Steve Scherf et al.
# Submitted via: CDex 1.70beta2
#
DISCID=eb0fa20f
DTITLE=倖田來未 - BEST～second session～
DYEAR=2006
DGENRE=JPop
TTITLE0=Introduction (to the second session)
TTITLE1=D.D.D. feat. SOULHEAD
TTITLE2=you
TTITLE3=Candy feat. Mr. Blistah
TTITLE4=Shake It Up
TTITLE5=feel
TTITLE6=WIND
TTITLE7=Love goes like…
TTITLE8=No Regret
TTITLE9=Birthday Eve
TTITLE10=Lies
TTITLE11=今すぐ欲しい
TTITLE12=KAMEN feat. 石井竜也
TTITLE13=Someday
TTITLE14=Koda Kumi and Peabo Bryson/A Whole New World
EXTD=YEAR: 2006
EXTT0=
EXTT1=
EXTT2=
EXTT3=
EXTT4=
EXTT5=
EXTT6=
EXTT7=
EXTT8=
EXTT9=
EXTT10=
EXTT11=
EXTT12=
EXTT13=
EXTT14=
PLAYORDER=
